<svg width="3127" height="2605" viewBox="0 0 3127 2605" fill="none" xmlns="http://www.w3.org/2000/svg">
<mask id="mask0_2013_566" style="mask-type:alpha" maskUnits="userSpaceOnUse" x="0" y="0" width="3127" height="2605">
<rect width="3127" height="2605" fill="url(#paint0_radial_2013_566)"/>
</mask>
<g mask="url(#mask0_2013_566)">
<rect x="170" y="-75" width="2787" height="2951" fill="#014C63"/>
<path d="M-7561.32 -51.2861C-8402.45 286.625 -10312.1 -257.893 -10988.9 -719.488C-11665.6 -1181.08 -11678.8 -2049.8 -11622 -2820.85C-11565.2 -3591.9 -11356.4 -4930.34 -10648.1 -5345.78C-9939.9 -5761.22 -8156.92 -5746.63 -7372.58 -5313.49C-6588.23 -4880.35 -5910.6 -3623.99 -5942.06 -2746.95" fill="url(#paint1_radial_2013_566)"/>
<path d="M6301.82 -6225.14C7921.08 -8797.31 3551.06 -6431.75 2874.28 -6893.35C2197.51 -7354.94 2739.14 -8759.31 -533.682 -9728.81C-3806.5 -10698.3 714.666 -12414 3215 -11519.6C5715.33 -10625.3 5706.21 -11920.5 6490.56 -11487.3C7274.91 -11054.2 6407.31 -7223.35 6375.85 -6346.31" fill="url(#paint2_radial_2013_566)"/>
<path d="M2957 155.547V186.286C2914.65 186.286 2874.04 204.099 2844.1 235.805C2814.15 267.512 2797.33 310.515 2797.33 355.354C2797.33 385.172 2814.17 428.361 2834.05 449.264L2868.31 485.536C2881.72 500.919 2890.55 520.143 2893.7 540.809C2896.85 561.474 2894.18 582.664 2886.02 601.732L2879.78 614.643C2870.07 633.038 2856.11 648.517 2839.19 659.622C2822.28 670.726 2802.98 677.092 2783.1 678.12H2274.77V1216.37C2275.74 1231.71 2280.26 1246.56 2287.93 1259.61C2295.6 1272.66 2306.18 1283.52 2318.75 1291.22L2330.94 1297.83C2353.88 1309.97 2389 1303.98 2407 1284.77L2441.26 1248.49C2471.27 1219.66 2509.8 1202.76 2550.27 1200.69C2575.05 1200.67 2599.59 1205.82 2622.5 1215.84C2645.4 1225.87 2666.21 1240.57 2683.75 1259.11C2701.28 1277.65 2715.2 1299.66 2724.7 1323.9C2734.2 1348.13 2739.1 1374.11 2739.12 1400.35C2739.14 1426.59 2734.28 1452.57 2724.81 1476.82C2715.35 1501.07 2701.46 1523.11 2683.95 1541.68C2666.44 1560.24 2645.65 1574.98 2622.76 1585.04C2599.88 1595.1 2575.34 1600.29 2550.56 1600.31C2509.98 1598.36 2471.31 1581.45 2441.26 1552.51L2407 1516.23C2396.82 1506.6 2384.25 1500.25 2370.77 1497.94C2357.3 1495.62 2343.48 1497.44 2330.94 1503.17L2318.75 1509.78C2306.18 1517.48 2295.6 1528.34 2287.93 1541.39C2280.26 1554.44 2275.74 1569.29 2274.77 1584.63V2122.88H2783.1C2802.98 2123.91 2822.28 2130.27 2839.19 2141.38C2856.11 2152.48 2870.07 2167.96 2879.78 2186.36L2886.02 2199.27C2894.21 2218.33 2896.91 2239.53 2893.76 2260.2C2890.61 2280.88 2881.75 2300.1 2868.31 2315.46L2834.05 2351.74C2812.17 2377.76 2799.23 2410.86 2797.33 2445.65C2797.33 2490.49 2814.15 2533.49 2844.1 2565.19C2874.04 2596.9 2914.65 2614.71 2957 2614.71V2645.45C2906.95 2645.45 2858.96 2624.4 2823.57 2586.93C2788.18 2549.46 2768.3 2498.64 2768.3 2445.65C2770.14 2402.67 2786.11 2361.73 2813.44 2329.91L2847.7 2293.64C2856.8 2282.86 2862.79 2269.55 2864.98 2255.28C2867.16 2241.01 2865.45 2226.37 2860.04 2213.1L2853.79 2200.19C2846.52 2186.89 2836.27 2175.68 2823.94 2167.56C2811.61 2159.44 2797.59 2154.65 2783.1 2153.62H2274.77V2691.87C2273.8 2712.92 2267.78 2733.35 2257.3 2751.26C2246.81 2769.17 2232.19 2783.96 2214.82 2794.23L2202.62 2800.84C2184.62 2809.52 2164.6 2812.37 2145.08 2809.03C2125.55 2805.7 2107.39 2796.32 2092.88 2782.09L2058.63 2745.82C2034.05 2722.64 2002.79 2708.94 1969.94 2706.93C1927.59 2706.93 1886.98 2724.74 1857.03 2756.45C1827.09 2788.16 1810.27 2831.16 1810.27 2876H1781.23C1781.23 2823.01 1801.12 2772.19 1836.5 2734.72C1871.89 2697.24 1919.89 2676.19 1969.94 2676.19C2005.79 2676.19 2053.98 2697.25 2079.24 2723.99L2113.5 2760.27C2123.69 2769.88 2136.26 2776.22 2149.73 2778.53C2163.2 2780.85 2177.02 2779.04 2189.56 2773.33L2201.75 2766.72C2214.32 2759.02 2224.9 2748.16 2232.57 2735.11C2240.24 2722.06 2244.76 2707.21 2245.73 2691.87V2153.62H1737.4C1717.52 2152.59 1698.22 2146.23 1681.31 2135.12C1664.39 2124.02 1650.43 2108.54 1640.72 2090.14L1634.48 2077.23C1626.29 2058.17 1623.59 2036.97 1626.74 2016.3C1629.9 1995.62 1638.75 1976.4 1652.19 1961.04L1686.45 1924.76C1708.33 1898.74 1721.27 1865.64 1723.17 1830.85C1723.17 1786.01 1706.35 1743.01 1676.41 1711.31C1646.46 1679.6 1605.85 1661.79 1563.5 1661.79C1521.15 1661.79 1480.54 1679.6 1450.59 1711.31C1420.65 1743.01 1403.83 1786.01 1403.83 1830.85C1403.83 1860.67 1420.67 1903.86 1440.55 1924.76L1474.81 1961.04C1488.22 1976.42 1497.05 1995.64 1500.2 2016.31C1503.35 2036.97 1500.68 2058.16 1492.52 2077.23L1486.28 2090.14C1476.57 2108.54 1462.61 2124.02 1445.69 2135.12C1428.78 2146.23 1409.48 2152.59 1389.6 2153.62H881.266V2691.87C882.239 2707.21 886.76 2722.06 894.43 2735.11C902.1 2748.16 912.683 2759.02 925.248 2766.72L937.441 2773.33C960.376 2785.47 995.504 2779.48 1013.5 2760.27L1047.76 2723.99C1077.77 2695.16 1116.3 2678.26 1156.77 2676.19C1181.58 2676.15 1206.15 2681.29 1229.07 2691.31C1252 2701.34 1272.84 2716.05 1290.39 2734.61C1307.95 2753.16 1321.87 2775.2 1331.37 2799.47C1340.88 2823.73 1345.77 2849.74 1345.77 2876H1316.73C1316.73 2831.16 1299.91 2788.16 1269.97 2756.45C1240.02 2724.74 1199.41 2706.93 1157.06 2706.93C1128.9 2706.93 1088.11 2724.76 1068.37 2745.82L1034.12 2782.09C1019.59 2796.29 1001.43 2805.64 981.914 2808.97C962.397 2812.31 942.385 2809.48 924.377 2800.84L912.184 2794.23C894.811 2783.96 880.192 2769.17 869.705 2751.26C859.217 2733.35 853.205 2712.92 852.234 2691.87V2153.62H343.897C329.411 2154.65 315.387 2159.44 303.06 2167.56C290.733 2175.68 280.48 2186.89 273.206 2200.19L266.964 2213.1C255.497 2237.39 261.158 2274.58 279.303 2293.64L313.56 2329.91C340.789 2361.68 356.747 2402.48 358.703 2445.34C358.741 2471.6 353.888 2497.62 344.422 2521.9C334.956 2546.17 321.063 2568.24 303.536 2586.82C286.01 2605.41 265.194 2620.15 242.281 2630.21C219.367 2640.27 194.805 2645.45 170 2645.45L170 2614.71C212.348 2614.71 252.961 2596.9 282.905 2565.19C312.849 2533.49 329.672 2490.49 329.672 2445.65C329.672 2415.83 312.834 2372.64 292.947 2351.74L258.69 2315.46C245.282 2300.08 236.451 2280.86 233.302 2260.19C230.152 2239.53 232.823 2218.34 240.981 2199.27L247.223 2186.36C256.928 2167.96 270.894 2152.48 287.806 2141.38C304.718 2130.27 324.021 2123.91 343.897 2122.88H852.234V1584.63C851.261 1569.29 846.74 1554.44 839.07 1541.39C831.4 1528.34 820.817 1517.48 808.252 1509.78L796.059 1503.17C772.979 1490.87 737.996 1497.02 719.997 1516.23L685.74 1552.51C655.685 1581.45 617.021 1598.36 576.438 1600.31C526.39 1600.31 478.393 1579.26 443.004 1541.79C407.616 1504.31 387.734 1453.49 387.734 1400.5C387.734 1347.51 407.616 1296.69 443.004 1259.21C478.393 1221.74 526.39 1200.69 576.438 1200.69C612.291 1200.69 660.483 1221.75 685.74 1248.49L719.997 1284.77C730.186 1294.38 742.756 1300.72 756.23 1303.03C769.703 1305.35 783.521 1303.54 796.059 1297.83L808.252 1291.22C820.817 1283.52 831.4 1272.66 839.07 1259.61C846.74 1246.56 851.261 1231.71 852.234 1216.37V678.12H343.897C324.021 677.092 304.718 670.726 287.806 659.622C270.894 648.517 256.928 633.038 247.223 614.643L240.981 601.732C232.785 582.673 230.093 561.474 233.244 540.799C236.395 520.125 245.248 500.898 258.69 485.536L292.947 449.264C314.834 423.237 327.775 390.145 329.672 355.354C329.672 310.515 312.849 267.512 282.905 235.805C252.961 204.099 212.348 186.286 170 186.286V155.547C220.047 155.547 268.045 176.598 303.433 214.069C338.822 251.54 358.703 302.362 358.703 355.354C358.703 393.318 338.817 444.345 313.56 471.089L279.303 507.361C270.22 518.15 264.234 531.46 262.049 545.726C259.863 559.993 261.568 574.623 266.964 587.899L273.206 600.81C280.48 614.114 290.733 625.32 303.06 633.441C315.387 641.562 329.411 646.349 343.897 647.38H852.234V109.13C853.205 88.084 859.217 67.6455 869.705 49.738C880.192 31.8306 894.811 17.0431 912.184 6.7673L924.377 0.158281C942.377 -8.52033 962.398 -11.3706 981.924 -8.03428C1001.45 -4.69792 1019.61 4.67617 1034.12 18.9094L1068.37 55.1821C1092.95 78.3564 1124.21 92.059 1157.06 94.0677C1199.41 94.0677 1240.02 76.2553 1269.97 44.5489C1299.91 12.8426 1316.73 -30.1605 1316.73 -75H1345.77C1345.77 -22.0078 1325.88 28.814 1290.5 66.2851C1255.11 103.756 1207.11 124.807 1157.06 124.807C1116.48 122.858 1077.81 105.949 1047.76 77.0072L1013.5 40.7345C1003.32 31.1008 990.752 24.7518 977.274 22.4369C963.797 20.122 949.976 21.9379 937.441 27.6702L925.248 34.2792C912.683 41.9815 902.1 52.837 894.43 65.8897C886.76 78.9424 882.239 93.7918 881.266 109.13V647.38H1389.6C1409.48 648.408 1428.78 654.774 1445.69 665.878C1462.61 676.983 1476.57 692.462 1486.28 710.857L1492.52 723.768C1500.71 742.827 1503.41 764.026 1500.26 784.701C1497.1 805.375 1488.25 824.602 1474.81 839.964L1440.55 876.236C1418.67 902.263 1405.73 935.355 1403.83 970.146C1403.83 1014.99 1420.65 1057.99 1450.59 1089.69C1480.54 1121.4 1521.15 1139.21 1563.5 1139.21C1605.85 1139.21 1646.46 1121.4 1676.41 1089.69C1706.35 1057.99 1723.17 1014.99 1723.17 970.146C1723.17 940.328 1706.33 897.139 1686.45 876.236L1652.19 839.964C1638.78 824.581 1629.95 805.357 1626.8 784.691C1623.65 764.026 1626.32 742.836 1634.48 723.768L1640.72 710.857C1650.43 692.462 1664.39 676.983 1681.31 665.878C1698.22 654.774 1717.52 648.408 1737.4 647.38H2245.73V109.13C2244.76 93.7918 2240.24 78.9424 2232.57 65.8897C2224.9 52.837 2214.32 41.9815 2201.75 34.2792L2189.56 27.6702C2166.48 15.3744 2131.5 21.5223 2113.5 40.7345L2079.24 77.0072C2049.19 105.949 2010.52 122.858 1969.94 124.807C1919.89 124.807 1871.89 103.756 1836.5 66.2851C1801.12 28.814 1781.23 -22.0078 1781.23 -75L1810.27 -75C1810.27 -30.1605 1827.09 12.8426 1857.03 44.5489C1886.98 76.2553 1927.59 94.0677 1969.94 94.0677C1998.1 94.0677 2038.89 76.2388 2058.63 55.1821L2092.88 18.9094C2107.41 4.71181 2125.57 -4.63851 2145.09 -7.97343C2164.6 -11.3083 2184.62 -8.48 2202.62 0.158281L2214.82 6.7673C2232.19 17.0431 2246.81 31.8306 2257.3 49.738C2267.78 67.6455 2273.8 88.084 2274.77 109.13V647.38H2783.1C2797.59 646.349 2811.61 641.562 2823.94 633.441C2836.27 625.32 2846.52 614.114 2853.79 600.81L2860.04 587.899C2871.65 563.461 2865.84 526.42 2847.7 507.361L2813.44 471.089C2786.11 439.265 2770.14 398.326 2768.3 355.354C2768.3 302.362 2788.18 251.54 2823.57 214.069C2858.96 176.598 2906.95 155.547 2957 155.547ZM1389.6 2122.88C1404.09 2121.85 1418.11 2117.06 1430.44 2108.94C1442.77 2100.82 1453.02 2089.61 1460.29 2076.31L1466.54 2063.4C1478.15 2038.96 1472.34 2001.92 1454.2 1982.86L1419.94 1946.59C1392.61 1914.77 1376.64 1873.83 1374.8 1830.85C1374.8 1777.86 1394.68 1727.04 1430.07 1689.57C1465.46 1652.1 1513.45 1631.05 1563.5 1631.05C1613.55 1631.05 1661.54 1652.1 1696.93 1689.57C1732.32 1727.04 1752.2 1777.86 1752.2 1830.85C1752.2 1868.82 1732.32 1919.85 1707.06 1946.59L1672.8 1982.86C1663.72 1993.65 1657.73 2006.96 1655.55 2021.23C1653.36 2035.49 1655.07 2050.12 1660.46 2063.4L1666.71 2076.31C1673.98 2089.61 1684.23 2100.82 1696.56 2108.94C1708.89 2117.06 1722.91 2121.85 1737.4 2122.88H2245.73V1584.63C2246.7 1563.58 2252.72 1543.15 2263.2 1525.24C2273.69 1507.33 2288.31 1492.54 2305.68 1482.27L2317.88 1475.66C2335.88 1466.98 2355.9 1464.13 2375.42 1467.47C2394.95 1470.8 2413.11 1480.18 2427.62 1494.41L2461.87 1530.68C2486.45 1553.86 2517.71 1567.56 2550.56 1569.57C2592.91 1569.57 2633.52 1551.76 2663.47 1520.05C2693.41 1488.34 2710.23 1445.34 2710.23 1400.5C2710.23 1355.66 2693.41 1312.66 2663.47 1280.95C2633.52 1249.24 2592.91 1231.43 2550.56 1231.43C2522.4 1231.43 2481.61 1249.26 2461.87 1270.32L2427.62 1306.59C2413.09 1320.79 2394.93 1330.14 2375.41 1333.47C2355.9 1336.81 2335.88 1333.98 2317.88 1325.34L2305.68 1318.73C2288.31 1308.46 2273.69 1293.67 2263.2 1275.76C2252.72 1257.85 2246.7 1237.42 2245.73 1216.37V678.12H1737.4C1722.91 679.151 1708.89 683.938 1696.56 692.059C1684.23 700.18 1673.98 711.386 1666.71 724.69L1660.46 737.601C1649 761.885 1654.66 799.08 1672.8 818.139L1707.06 854.411C1734.29 886.183 1750.25 926.985 1752.2 969.839C1752.22 996.078 1747.36 1022.06 1737.89 1046.31C1728.43 1070.56 1714.55 1092.6 1697.04 1111.17C1661.67 1148.67 1613.69 1169.76 1563.65 1169.8C1538.86 1169.82 1514.32 1164.67 1491.42 1154.65C1468.52 1144.63 1447.71 1129.93 1430.17 1111.39C1394.75 1073.94 1374.84 1023.14 1374.8 970.146C1376.64 927.174 1392.61 886.235 1419.94 854.411L1454.2 818.139C1463.3 807.359 1469.29 794.049 1471.48 779.778C1473.66 765.508 1471.95 750.873 1466.54 737.601L1460.29 724.69C1453.02 711.386 1442.77 700.18 1430.44 692.059C1418.11 683.938 1404.09 679.151 1389.6 678.12H881.266V1216.37C880.295 1237.42 874.283 1257.85 863.795 1275.76C853.308 1293.67 838.689 1308.46 821.316 1318.73L809.123 1325.34C791.123 1334.02 771.102 1336.87 751.576 1333.53C732.051 1330.2 713.893 1320.82 699.385 1306.59L665.128 1270.32C640.548 1247.14 609.295 1233.44 576.438 1231.43C534.09 1231.43 493.477 1249.24 463.532 1280.95C433.588 1312.66 416.766 1355.66 416.766 1400.5C416.766 1445.34 433.588 1488.34 463.532 1520.05C493.477 1551.76 534.09 1569.57 576.438 1569.57C604.598 1569.57 645.387 1551.74 665.128 1530.68L699.385 1494.41C713.912 1480.21 732.069 1470.86 751.586 1467.53C771.103 1464.19 791.115 1467.02 809.123 1475.66L821.316 1482.27C838.689 1492.54 853.308 1507.33 863.795 1525.24C874.283 1543.15 880.295 1563.58 881.266 1584.63V2122.88H1389.6Z" fill="white"/>
</g>
<defs>
<radialGradient id="paint0_radial_2013_566" cx="0" cy="0" r="1" gradientUnits="userSpaceOnUse" gradientTransform="translate(1563.5 1302.5) rotate(90) scale(1456.63 1748.51)">
<stop/>
<stop offset="1" stop-opacity="0"/>
</radialGradient>
<radialGradient id="paint1_radial_2013_566" cx="0" cy="0" r="1" gradientUnits="userSpaceOnUse" gradientTransform="translate(-1001.08 -3525.99) rotate(90) scale(2851 2851)">
<stop stop-color="white" stop-opacity="0.5"/>
</radialGradient>
<radialGradient id="paint2_radial_2013_566" cx="0" cy="0" r="1" gradientUnits="userSpaceOnUse" gradientTransform="translate(-1001.08 -3525.99) rotate(90) scale(2851 2851)">
<stop stop-color="white" stop-opacity="0.5"/>
</radialGradient>
</defs>
</svg>
