<svg width="1200" height="1200" viewBox="0 0 1200 1200" fill="none" xmlns="http://www.w3.org/2000/svg">
<g clip-path="url(#clip0_2009_1414)">
<path d="M1200 0H0V1200H1200V0Z" fill="black"/>
<path d="M0 733.131L719.092 340.484H0V733.131Z" fill="#FFCC00"/>
<path d="M534.222 53.4399L0 279.876V293.592L877.254 298.433L534.222 53.4399Z" fill="#FF6666"/>
<path d="M0 212.812L436.518 25.2373L198.868 0H0V212.812Z" fill="#FFCC00"/>
<path d="M665.778 1146.56L1200 920.125V906.408L322.746 901.566L665.778 1146.56Z" fill="#344CB7"/>
<path d="M1200 987.188L763.482 1174.76L1001.13 1200H1200V987.188Z" fill="#FFCC00"/>
<path d="M1007.2 235.067L1200 0H691.062L1007.2 235.067Z" fill="#FFCC00"/>
<path d="M66.8076 1200L67.6956 893.539L476.952 1200H66.8076Z" fill="#FF6666"/>
</g>
<defs>
<clipPath id="clip0_2009_1414">
<rect width="1200" height="1200" fill="white"/>
</clipPath>
</defs>
</svg>
