<svg width="1355" height="960" viewBox="0 0 1355 960" fill="none" xmlns="http://www.w3.org/2000/svg">
<rect width="1355" height="960" fill="black"/>
<g filter="url(#filter0_f_5868_12)">
<ellipse cx="513.49" cy="480" rx="185.469" ry="149.306" fill="#FF0D6A"/>
</g>
<g filter="url(#filter1_f_5868_12)">
<ellipse cx="749.542" cy="480" rx="185.469" ry="149.306" fill="#0500FF"/>
</g>
<g filter="url(#filter2_f_5868_12)">
<ellipse cx="985.593" cy="480" rx="185.469" ry="149.306" fill="#00FFE0"/>
</g>
<mask id="mask0_5868_12" style="mask-type:alpha" maskUnits="userSpaceOnUse" x="0" y="0" width="1355" height="960">
<path d="M0 10C0 4.47717 4.47715 0 10 0H1345C1350.52 0 1355 4.47715 1355 10V950C1355 955.523 1350.52 960 1345 960H9.99999C4.47715 960 0 955.523 0 950V10Z" fill="black"/>
</mask>
<g mask="url(#mask0_5868_12)">
</g>
<defs>
<filter id="filter0_f_5868_12" x="178.021" y="180.694" width="670.939" height="598.612" filterUnits="userSpaceOnUse" color-interpolation-filters="sRGB">
<feFlood flood-opacity="0" result="BackgroundImageFix"/>
<feBlend mode="normal" in="SourceGraphic" in2="BackgroundImageFix" result="shape"/>
<feGaussianBlur stdDeviation="75" result="effect1_foregroundBlur_5868_12"/>
</filter>
<filter id="filter1_f_5868_12" x="414.072" y="180.694" width="670.939" height="598.612" filterUnits="userSpaceOnUse" color-interpolation-filters="sRGB">
<feFlood flood-opacity="0" result="BackgroundImageFix"/>
<feBlend mode="normal" in="SourceGraphic" in2="BackgroundImageFix" result="shape"/>
<feGaussianBlur stdDeviation="75" result="effect1_foregroundBlur_5868_12"/>
</filter>
<filter id="filter2_f_5868_12" x="650.124" y="180.694" width="670.939" height="598.612" filterUnits="userSpaceOnUse" color-interpolation-filters="sRGB">
<feFlood flood-opacity="0" result="BackgroundImageFix"/>
<feBlend mode="normal" in="SourceGraphic" in2="BackgroundImageFix" result="shape"/>
<feGaussianBlur stdDeviation="75" result="effect1_foregroundBlur_5868_12"/>
</filter>
</defs>
</svg>
