<svg width="536" height="393" viewBox="0 0 536 393" fill="none" xmlns="http://www.w3.org/2000/svg">
<rect x="59" y="50" width="378" height="293" fill="black"/>
<g filter="url(#filter0_f_5863_49)">
<ellipse cx="202.247" cy="196.5" rx="51.7398" ry="45.5694" fill="#FF0D6A"/>
</g>
<g filter="url(#filter1_f_5863_49)">
<ellipse cx="268.097" cy="196.5" rx="51.7398" ry="45.5694" fill="#0500FF"/>
</g>
<g filter="url(#filter2_f_5863_49)">
<ellipse cx="333.948" cy="196.5" rx="51.7398" ry="45.5694" fill="#00FFE0"/>
</g>
<mask id="mask0_5863_49" style="mask-type:alpha" maskUnits="userSpaceOnUse" x="59" y="50" width="378" height="293">
<path d="M59 60C59 54.4771 63.4772 50 69 50H427C432.523 50 437 54.4772 437 60V333C437 338.523 432.523 343 427 343H69C63.4772 343 59 338.523 59 333V60Z" fill="black"/>
</mask>
<g mask="url(#mask0_5863_49)">
</g>
<defs>
<filter id="filter0_f_5863_49" x="0.506775" y="0.930603" width="403.48" height="391.139" filterUnits="userSpaceOnUse" color-interpolation-filters="sRGB">
<feFlood flood-opacity="0" result="BackgroundImageFix"/>
<feBlend mode="normal" in="SourceGraphic" in2="BackgroundImageFix" result="shape"/>
<feGaussianBlur stdDeviation="75" result="effect1_foregroundBlur_5863_49"/>
</filter>
<filter id="filter1_f_5863_49" x="66.3574" y="0.930603" width="403.48" height="391.139" filterUnits="userSpaceOnUse" color-interpolation-filters="sRGB">
<feFlood flood-opacity="0" result="BackgroundImageFix"/>
<feBlend mode="normal" in="SourceGraphic" in2="BackgroundImageFix" result="shape"/>
<feGaussianBlur stdDeviation="75" result="effect1_foregroundBlur_5863_49"/>
</filter>
<filter id="filter2_f_5863_49" x="132.208" y="0.930603" width="403.48" height="391.139" filterUnits="userSpaceOnUse" color-interpolation-filters="sRGB">
<feFlood flood-opacity="0" result="BackgroundImageFix"/>
<feBlend mode="normal" in="SourceGraphic" in2="BackgroundImageFix" result="shape"/>
<feGaussianBlur stdDeviation="75" result="effect1_foregroundBlur_5863_49"/>
</filter>
</defs>
</svg>
