<svg data-v-423bf9ae="" xmlns="http://www.w3.org/2000/svg" viewBox="0 0 660 90" class="iconLeft"><!----><!----><!----><g data-v-423bf9ae="" id="90c58a10-b02c-4dd9-bd0d-4482ffbc7817" fill="black" transform="matrix(5.60747673547115,0,0,5.60747673547115,138.43034547449184,14.775701432520503)"><path d="M3.19 1.29L4.48 1.29C5.99 1.29 6.58 2.14 6.58 3.39C6.58 4.40 5.77 5.49 4.45 5.49L3.79 5.49L3.79 6.08L6.15 9.91L6.03 10.50L8.69 10.50L8.79 9.91L7.59 9.45L5.77 6.47L5.04 6.10C6.59 6.10 8.01 5.08 8.01 3.39C8.01 1.72 7.04 0.70 5.01 0.70L0.60 0.70L0.49 1.29L1.71 1.75L1.71 9.45L0.52 9.91L0.62 10.50L4.30 10.50L4.40 9.91L3.19 9.45ZM12.67 3.81C10.60 3.81 9.38 5.12 9.38 7.22C9.38 9.32 10.46 10.65 12.67 10.65C14.90 10.65 15.96 9.38 15.96 7.22C15.96 5.07 14.74 3.81 12.67 3.81ZM12.67 4.33C13.85 4.33 14.62 5.39 14.62 7.18C14.62 8.96 13.86 10.14 12.67 10.14C11.48 10.14 10.74 8.95 10.74 7.18C10.74 5.42 11.51 4.33 12.67 4.33ZM19.26 4.70C19.67 4.56 20.06 4.47 20.47 4.47C21.49 4.47 22.09 5.01 22.09 6.92C22.09 8.82 21.48 10.00 20.22 10.00C19.67 10.00 19.17 9.88 18.82 9.70L18.82 0.20L18.20 0.04L16.55 0.20L16.66 0.70L17.50 0.70L17.50 10.00C18.31 10.47 19.14 10.65 20.31 10.65C22.53 10.65 23.55 9.23 23.55 7.07C23.55 4.83 22.65 3.81 20.59 3.81C20.17 3.81 19.66 3.91 19.26 4.09ZM26.18 6.54C26.29 5.24 26.85 4.33 28.06 4.33C29.02 4.33 29.55 4.87 29.55 5.89C29.55 6.09 29.51 6.36 29.46 6.54ZM28.39 10.00C26.88 10.00 26.15 8.79 26.15 7.11L26.15 7.04L30.63 7.04C30.74 6.80 30.87 6.38 30.87 6.01C30.87 4.66 29.68 3.81 28.06 3.81C26.10 3.81 24.67 5.07 24.67 7.22C24.67 9.30 25.83 10.65 28.31 10.65C29.22 10.65 30.11 10.37 30.72 9.83L30.39 9.37C29.82 9.73 29.13 10.00 28.39 10.00ZM37.13 5.47L37.13 4.05C36.72 3.88 36.30 3.81 35.88 3.81C35.15 3.81 34.62 4.06 34.15 4.33L33.66 3.81L32.03 3.96L32.13 4.47L32.83 4.47L32.83 9.70L31.92 10.00L32.02 10.50L34.96 10.50L35.07 10.00L34.15 9.70L34.15 4.84C34.64 4.66 35.24 4.47 35.63 4.47C35.97 4.47 36.12 4.51 36.32 4.58L36.62 5.57ZM39.63 2.34L38.99 2.18L38.40 3.65L37.41 3.96L37.51 4.47L38.32 4.47L38.32 8.85C38.32 9.87 38.88 10.65 40.17 10.65C40.96 10.65 41.37 10.33 41.83 9.84L41.51 9.46C41.22 9.79 40.91 10.00 40.40 10.00C39.98 10.00 39.63 9.62 39.63 8.96L39.63 4.47L41.37 4.47L41.47 3.96L39.63 3.96ZM46.03 2.98C46.03 4.89 47.24 5.57 48.31 6.03C49.41 6.50 51.11 7.18 51.11 8.53C51.11 9.51 50.19 10.05 48.82 10.05C48.36 10.05 47.75 9.86 47.36 9.65L46.66 7.81L46.07 7.91L46.07 9.91C46.77 10.42 47.77 10.74 48.92 10.74C51.38 10.74 52.40 9.62 52.40 8.08C52.40 6.45 51.16 5.66 49.69 4.91C48.89 4.51 47.33 3.89 47.33 2.88C47.33 1.96 47.95 1.15 49.21 1.15C49.76 1.15 50.22 1.23 50.69 1.40L51.37 3.29L51.95 3.19L51.95 1.29C51.17 0.81 50.32 0.46 49.22 0.46C47.47 0.46 46.03 1.27 46.03 2.98ZM55.38 2.34L54.74 2.18L54.15 3.65L53.16 3.96L53.26 4.47L54.07 4.47L54.07 8.85C54.07 9.87 54.63 10.65 55.92 10.65C56.71 10.65 57.12 10.33 57.58 9.84L57.26 9.46C56.97 9.79 56.66 10.00 56.15 10.00C55.73 10.00 55.38 9.62 55.38 8.96L55.38 4.47L57.12 4.47L57.22 3.96L55.38 3.96ZM59.65 6.54C59.77 5.24 60.33 4.33 61.53 4.33C62.50 4.33 63.03 4.87 63.03 5.89C63.03 6.09 62.99 6.36 62.93 6.54ZM61.87 10.00C60.35 10.00 59.63 8.79 59.63 7.11L59.63 7.04L64.11 7.04C64.22 6.80 64.34 6.38 64.34 6.01C64.34 4.66 63.15 3.81 61.53 3.81C59.57 3.81 58.14 5.07 58.14 7.22C58.14 9.30 59.30 10.65 61.78 10.65C62.69 10.65 63.59 10.37 64.19 9.83L63.87 9.37C63.29 9.73 62.61 10.00 61.87 10.00ZM70.49 5.66L71.92 10.65L73.09 10.50L74.80 4.76L75.71 4.47L75.61 3.96L73.47 3.96L73.36 4.47L74.27 4.76L72.80 9.70L72.80 8.92L71.33 3.81L70.25 3.96L68.56 9.70L68.56 9.21L67.28 4.76L68.18 4.47L68.08 3.96L65.10 3.96L65.00 4.47L65.91 4.76L67.59 10.65L68.84 10.50L70.49 4.98ZM76.65 5.47L77.15 5.57L77.45 4.49C77.84 4.35 78.27 4.33 78.64 4.33C79.46 4.33 80.04 4.80 80.04 5.80L80.04 6.54C78.22 6.54 76.09 6.85 76.09 8.81C76.09 10.02 77 10.65 78.18 10.65C79.14 10.65 79.52 10.43 80.07 10.00L80.30 10.50L82.17 10.50L82.26 10.00L81.35 9.70L81.35 6.38C81.35 4.73 80.46 3.81 78.72 3.81C78.01 3.81 77.35 3.96 76.65 4.31ZM80.04 9.23C79.74 9.73 79.30 10.00 78.74 10.00C78.18 10.00 77.57 9.67 77.57 8.67C77.57 7.64 78.27 7.04 80.04 7.04ZM88.17 5.47L88.17 4.05C87.77 3.88 87.35 3.81 86.93 3.81C86.20 3.81 85.67 4.06 85.19 4.33L84.70 3.81L83.08 3.96L83.17 4.47L83.87 4.47L83.87 9.70L82.96 10.00L83.06 10.50L86.00 10.50L86.11 10.00L85.19 9.70L85.19 4.84C85.68 4.66 86.28 4.47 86.67 4.47C87.01 4.47 87.16 4.51 87.36 4.58L87.67 5.57ZM90.68 2.34L90.03 2.18L89.45 3.65L88.45 3.96L88.55 4.47L89.36 4.47L89.36 8.85C89.36 9.87 89.92 10.65 91.21 10.65C92.01 10.65 92.41 10.33 92.88 9.84L92.55 9.46C92.26 9.79 91.95 10.00 91.45 10.00C91.03 10.00 90.68 9.62 90.68 8.96L90.68 4.47L92.41 4.47L92.51 3.96L90.68 3.96Z"></path></g><!----><g data-v-423bf9ae="" id="c824ffce-cd7f-4ddd-952f-c39e297409f7" transform="matrix(1.4256069731532488,0,0,1.4256069731532488,-9.781061069594372,-25.8460643227815)" stroke="none" fill="black"><path d="M89.405 18.435h-78.81A3.1 3.1 0 007.5 21.53v56.941a3.1 3.1 0 003.095 3.095h78.811a3.099 3.099 0 003.095-3.095V21.529a3.1 3.1 0 00-3.096-3.094zm-78.81 1.238h78.811a1.86 1.86 0 011.857 1.856v9.075c-.068-.01-.136-.021-.207-.021H8.951c-.073 0-.143.011-.213.021v-9.076c0-1.022.833-1.855 1.857-1.855zM91.263 77.14a.207.207 0 01-.207.206H8.951a.206.206 0 01-.206-.206V32.027c0-.113.093-.206.206-.206h82.104c.114 0 .207.093.207.206V77.14zm-1.858 3.187h-78.81a1.855 1.855 0 01-1.848-1.764c.067.01.135.021.204.021h82.104c.068 0 .133-.011.197-.02a1.854 1.854 0 01-1.847 1.763z"></path><path d="M28.178 27.787c1.45 0 2.63-1.18 2.63-2.63 0-1.451-1.18-2.631-2.63-2.631s-2.631 1.18-2.631 2.631c0 1.45 1.181 2.63 2.631 2.63zm0-4.022a1.394 1.394 0 010 2.786 1.394 1.394 0 010-2.786zM21.458 27.787a2.633 2.633 0 002.631-2.63 2.634 2.634 0 00-2.631-2.631c-1.45 0-2.63 1.18-2.63 2.631 0 1.45 1.18 2.63 2.63 2.63zm0-4.022a1.393 1.393 0 110 2.787 1.393 1.393 0 010-2.787zM14.738 27.787a2.633 2.633 0 002.631-2.63 2.634 2.634 0 00-2.631-2.631c-1.45 0-2.63 1.18-2.63 2.631 0 1.45 1.18 2.63 2.63 2.63zm0-4.022a1.393 1.393 0 110 2.787 1.393 1.393 0 010-2.787zM26.598 65.915c-.624 0-1.395-.429-2.289-1.276-1.605-1.519-2.16-2.371-1.2-3.405l8.79-8.811-8.774-8.782c-.676-.676-.57-1.195-.401-1.57.242-.544.814-1.117 1.479-1.781.829-.829 1.542-1.542 2.241-1.542.342 0 .679.172 1.033.526l11.769 11.755c.311.254.521.659.564 1.134.048.537-.134 1.152-.452 1.533L27.53 65.514c-.287.273-.589.401-.932.401zM23.846 42.57c-.009 0 .027.068.154.194l9.211 9.221a.62.62 0 010 .875L24 62.093a.804.804 0 00-.133.166c.012.047.125.377 1.292 1.48.979.927 1.42.938 1.438.938v.619l.01-.62-.001.001c-.003 0 .02-.012.061-.05L38.444 52.86c.061-.077.151-.357.131-.589a.444.444 0 00-.162-.328L26.601 40.148c-.144-.143-.215-.171-.215-.171-.182.06-.886.764-1.307 1.184-.531.532-1.077 1.078-1.227 1.413-.002-.003-.004-.004-.006-.004zM55.834 71.436H40.498c-1.594 0-1.92-1.234-1.92-3.088s.326-3.088 1.92-3.088h15.336c1.503 0 1.787 1.085 1.787 3.088 0 2.048-.275 3.088-1.787 3.088zm-15.336-4.939c-.366 0-.683 0-.683 1.851s.316 1.851.683 1.851h15.336c.354 0 .55 0 .55-1.851s-.219-1.851-.55-1.851H40.498z"></path></g><!----></svg>