<svg width="104" height="60" viewBox="0 0 104 60" fill="none" xmlns="http://www.w3.org/2000/svg">
<rect x="0.5" y="0.5" width="103" height="59" rx="5.5" fill="url(#paint0_linear_153_63)" stroke="black"/>
<rect x="5" y="15" width="26" height="2" rx="1" fill="#D9D9D9"/>
<rect x="5" y="21" width="26" height="2" rx="1" fill="#D9D9D9"/>
<rect x="5.25" y="34.25" width="28.5" height="19.5" rx="2.75" fill="#D9D9D9" stroke="black" stroke-width="0.5"/>
<rect x="68" y="40" width="31" height="2" rx="1" fill="#D9D9D9"/>
<rect x="61" y="36" width="38" height="2" rx="1" fill="#D9D9D9"/>
<rect x="44.25" y="13.25" width="54.5" height="19.5" rx="2.75" fill="#D9D9D9" stroke="black" stroke-width="0.5"/>
<line x1="2" y1="10.75" x2="102" y2="10.75" stroke="black" stroke-width="0.5"/>
<circle cx="7.5" cy="5.5" r="2.5" fill="#D9D9D9"/>
<circle cx="15.5" cy="5.5" r="2.5" fill="#D9D9D9"/>
<rect x="55" y="48" width="44" height="2" rx="1" fill="#D9D9D9"/>
<rect x="39" y="52" width="60" height="2" rx="1" fill="#D9D9D9"/>
<rect x="46" y="44" width="53" height="2" rx="1" fill="#D9D9D9"/>
<rect x="5" y="27" width="26" height="2" rx="1" fill="#D9D9D9"/>
<defs>
<linearGradient id="paint0_linear_153_63" x1="52" y1="0" x2="52" y2="60" gradientUnits="userSpaceOnUse">
<stop stop-color="#5E1687"/>
<stop offset="0.5" stop-color="#75267A"/>
<stop offset="0.75" stop-color="#75267A"/>
<stop offset="1" stop-color="#9D4166"/>
</linearGradient>
</defs>
</svg>
