<svg width="103" height="59" viewBox="0 0 103 59" fill="none" xmlns="http://www.w3.org/2000/svg">
<rect x="0.576464" y="0.251409" width="101.5" height="57.5" rx="5.75" transform="rotate(0.323857 0.576464 0.251409)" fill="#00B2C6" stroke="white" stroke-width="0.5"/>
<rect x="5.25036" y="16.3156" width="45.0794" height="5.77607" rx="2.75" transform="rotate(-0.0827998 5.25036 16.3156)" fill="#D9D9D9" stroke="black" stroke-width="0.5"/>
<rect x="5.25036" y="46.2992" width="33.811" height="5.77607" rx="2.75" transform="rotate(-0.0827998 5.25036 46.2992)" fill="#D9D9D9" stroke="black" stroke-width="0.5"/>
<rect x="63.2504" y="16.3012" width="35.16" height="5.77607" rx="2.75" transform="rotate(-0.0827998 63.2504 16.3012)" fill="#D9D9D9" stroke="black" stroke-width="0.5"/>
<rect x="5.25036" y="36.2932" width="34.3485" height="5.77607" rx="2.75" transform="rotate(-0.0827998 5.25036 36.2932)" fill="#D9D9D9" stroke="black" stroke-width="0.5"/>
<rect x="82.2504" y="36.2741" width="16.3671" height="5.77607" rx="2.75" transform="rotate(-0.0827998 82.2504 36.2741)" fill="#D9D9D9" stroke="black" stroke-width="0.5"/>
<rect x="45.2504" y="46.3285" width="54.0263" height="5.77607" rx="2.75" transform="rotate(-0.0827998 45.2504 46.3285)" fill="#D9D9D9" stroke="black" stroke-width="0.5"/>
<rect x="45.4642" y="36.2947" width="30.6785" height="5.77607" rx="2.75" transform="rotate(-0.0827998 45.4642 36.2947)" fill="#D9D9D9" stroke="black" stroke-width="0.5"/>
<rect x="5.25036" y="26.3811" width="93.2144" height="5.77607" rx="2.75" transform="rotate(-0.0827998 5.25036 26.3811)" fill="#D9D9D9" stroke="black" stroke-width="0.5"/>
<line x1="1.00088" y1="11.75" x2="101" y2="12.1012" stroke="black" stroke-width="0.5"/>
<circle cx="96.0362" cy="6.03619" r="2.35" transform="rotate(-14.179 96.0362 6.03619)" fill="#D9D9D9" stroke="black" stroke-width="0.3"/>
<circle cx="88.0362" cy="6.03619" r="2.35" transform="rotate(-14.179 88.0362 6.03619)" fill="#D9D9D9" stroke="black" stroke-width="0.3"/>
</svg>
